<svg xmlns="http://www.w3.org/2000/svg" width="170" height="27" viewBox="0 0 170 27" fill="none">
    <path d="M0 0.431999V13.2478V25.488H22V0.46799L0 0.431999Z" fill="white"/>
    <path d="M45.3522 25.488H41.2482L28.9002 8.17199V25.488H24.7962V0.431999H28.9002L41.2482 18.684V0.431999H45.3522V25.488Z" fill="white"/>
    <path d="M65.224 0.467998V3.816H54.604V11.196H62.884V14.544H54.604V25.488H50.5V0.467998H65.224Z" fill="white"/>
    <path d="M78.004 26.064C75.676 26.064 73.528 25.524 71.56 24.444C69.616 23.34 68.068 21.816 66.916 19.872C65.788 17.904 65.224 15.696 65.224 13.248C65.224 10.8 65.788 8.60401 66.916 6.66001C68.068 4.71601 69.616 3.20401 71.56 2.12401C73.528 1.02001 75.676 0.468006 78.004 0.468006C80.356 0.468006 82.504 1.02001 84.448 2.12401C86.416 3.20401 87.964 4.71601 89.092 6.66001C90.22 8.60401 90.784 10.8 90.784 13.248C90.784 15.696 90.22 17.904 89.092 19.872C87.964 21.816 86.416 23.34 84.448 24.444C82.504 25.524 80.356 26.064 78.004 26.064ZM78.004 22.5C79.66 22.5 81.136 22.128 82.432 21.384C83.728 20.616 84.736 19.536 85.456 18.144C86.2 16.728 86.572 15.096 86.572 13.248C86.572 11.4 86.2 9.78 85.456 8.388C84.736 6.996 83.728 5.92801 82.432 5.18401C81.136 4.44001 79.66 4.06801 78.004 4.06801C76.348 4.06801 74.872 4.44001 73.576 5.18401C72.28 5.92801 71.26 6.996 70.516 8.388C69.796 9.78 69.436 11.4 69.436 13.248C69.436 15.096 69.796 16.728 70.516 18.144C71.26 19.536 72.28 20.616 73.576 21.384C74.872 22.128 76.348 22.5 78.004 22.5Z" fill="white"/>
    <path d="M109.559 12.42C111.095 12.78 112.283 13.524 113.123 14.652C113.987 15.756 114.419 17.04 114.419 18.504C114.419 20.736 113.675 22.464 112.187 23.688C110.723 24.888 108.611 25.488 105.851 25.488H92.4953V0H105.491C108.083 0 110.123 0.564 111.611 1.692C113.099 2.82 113.843 4.464 113.843 6.624C113.843 8.112 113.447 9.37199 112.655 10.404C111.887 11.412 110.855 12.084 109.559 12.42ZM92.4953 9.50399L103.583 9.93599C104.303 9.93599 104.831 9.79199 105.167 9.50399C105.527 9.21599 105.707 8.77199 105.707 8.17199C105.707 7.54799 105.527 7.092 105.167 6.804C104.831 6.492 104.303 6.336 103.583 6.336L92.4953 5.904V9.50399ZM104.123 19.08C104.843 19.08 105.371 18.948 105.707 18.684C106.067 18.396 106.247 17.94 106.247 17.316C106.247 16.092 105.539 15.48 104.123 15.48L92.4953 15.624V19.224L104.123 19.08Z" fill="white"/>
    <path d="M141.444 25.488H133.452L124.992 12.672V25.488H117V0H124.992L133.452 13.032V0H141.444V25.488Z" fill="white"/>
    <path d="M160.463 25.488L153.047 14.436V25.488H145.055V0H153.047V10.728L160.355 0H169.391L160.607 12.204L169.967 25.488H160.463Z" fill="white"/>
    <!-- Texto "Jrel Team" -->
    <text x="5" y="20" font-family="Arial" font-size="14" fill="black">Jrel Team</text>
</svg>
