<svg xmlns="http://www.w3.org/2000/svg" xmlns:xlink="http://www.w3.org/1999/xlink" width="500" zoomAndPan="magnify" viewBox="0 0 375 374.999991" height="500" preserveAspectRatio="xMidYMid meet" version="1.0"><defs><g/><clipPath id="5a0520080e"><path d="M 46.5625 131.921875 L 59.28125 131.921875 L 59.28125 163.273438 L 46.5625 163.273438 Z M 46.5625 131.921875 " clip-rule="nonzero"/></clipPath><clipPath id="c17f893549"><path d="M 46.5625 173.492188 L 59.28125 173.492188 L 59.28125 203.472656 L 46.5625 203.472656 Z M 46.5625 173.492188 " clip-rule="nonzero"/></clipPath></defs><g fill="#ffffff" fill-opacity="1"><g transform="translate(74.047574, 178.782919)"><g><path d="M 13.648438 0 C 14.289062 0 15.085938 -0.0546875 16.046875 -0.160156 C 17.007812 -0.265625 17.96875 -0.480469 19.03125 -0.851562 C 20.046875 -1.171875 21.058594 -1.652344 22.070312 -2.292969 C 23.085938 -2.933594 23.992188 -3.730469 24.84375 -4.796875 C 25.644531 -5.8125 26.285156 -7.089844 26.816406 -8.582031 C 27.296875 -10.078125 27.5625 -11.890625 27.5625 -13.96875 L 27.5625 -39.078125 L 8.050781 -39.078125 L 5.277344 -33.480469 L 16.421875 -33.480469 L 16.421875 -19.566406 C 16.421875 -17.433594 16.367188 -15.515625 16.3125 -13.808594 C 16.261719 -12.101562 16.046875 -10.609375 15.726562 -9.382812 C 15.355469 -8.15625 14.769531 -7.199219 14.023438 -6.558594 C 13.273438 -5.917969 12.207031 -5.597656 10.824219 -5.597656 C 9.757812 -5.597656 8.902344 -5.8125 8.210938 -6.238281 C 7.464844 -6.664062 6.929688 -7.144531 6.503906 -7.675781 C 5.972656 -8.261719 5.597656 -8.957031 5.277344 -9.757812 L 1.066406 -5.597656 C 1.972656 -4.53125 3.039062 -3.570312 4.320312 -2.773438 C 5.382812 -2.027344 6.664062 -1.386719 8.210938 -0.851562 C 9.757812 -0.265625 11.570312 0 13.648438 0 Z M 13.648438 0 "/></g></g></g><g fill="#ffffff" fill-opacity="1"><g transform="translate(104.272244, 178.782919)"><g><path d="M 33.375 0 L 26.65625 -18.765625 C 28.257812 -19.621094 29.589844 -20.738281 30.550781 -22.230469 C 31.507812 -23.726562 31.988281 -25.589844 31.988281 -27.9375 C 31.988281 -30.015625 31.5625 -31.773438 30.761719 -33.214844 C 29.910156 -34.601562 28.84375 -35.773438 27.457031 -36.625 C 26.070312 -37.480469 24.417969 -38.121094 22.550781 -38.492188 C 20.6875 -38.867188 18.714844 -39.078125 16.632812 -39.078125 L 2.664062 -39.078125 L 2.664062 0 L 13.808594 0 L 13.808594 -16.742188 L 16.632812 -16.742188 L 22.179688 0 Z M 13.808594 -22.339844 L 13.808594 -33.480469 C 14.980469 -33.480469 15.996094 -33.320312 16.902344 -33 C 17.808594 -32.679688 18.554688 -32.253906 19.140625 -31.722656 C 19.726562 -31.1875 20.152344 -30.601562 20.472656 -29.960938 C 20.792969 -29.269531 20.953125 -28.578125 20.953125 -27.882812 C 20.953125 -27.136719 20.792969 -26.445312 20.472656 -25.804688 C 20.152344 -25.164062 19.726562 -24.578125 19.140625 -24.042969 C 18.554688 -23.511719 17.808594 -23.136719 16.902344 -22.820312 C 15.996094 -22.5 14.980469 -22.339844 13.808594 -22.339844 Z M 13.808594 -22.339844 "/></g></g></g><g fill="#ffffff" fill-opacity="1"><g transform="translate(139.241182, 178.782919)"><g><path d="M 26.390625 0 L 25.003906 -8.371094 L 13.808594 -8.371094 L 13.808594 -39.078125 L 2.664062 -39.078125 L 2.664062 0 Z M 26.390625 0 "/></g></g></g><g fill="#ffffff" fill-opacity="1"><g transform="translate(166.693925, 178.782919)"><g/></g></g><g fill="#ffffff" fill-opacity="1"><g transform="translate(182.685817, 178.782919)"><g><path d="M 22.019531 -30.707031 L 31.773438 -30.707031 L 30.390625 -39.078125 L 2.453125 -39.078125 L 1.066406 -30.707031 L 10.824219 -30.707031 L 10.824219 0 L 22.019531 0 Z M 22.019531 -30.707031 "/></g></g></g><g fill="#ffffff" fill-opacity="1"><g transform="translate(215.522497, 178.782919)"><g><path d="M 27.777344 -8.371094 L 13.808594 -8.371094 L 13.808594 -15.355469 L 25.003906 -15.355469 L 25.003906 -23.726562 L 13.808594 -23.726562 L 13.808594 -30.707031 L 26.390625 -30.707031 L 25.003906 -39.078125 L 2.664062 -39.078125 L 2.664062 0 L 26.390625 0 Z M 27.777344 -8.371094 "/></g></g></g><g fill="#ffffff" fill-opacity="1"><g transform="translate(245.960395, 178.782919)"><g><path d="M 20.207031 -11.144531 L 23.40625 0 L 34.546875 0 L 23.40625 -39.078125 L 12.207031 -39.078125 L 1.066406 0 L 9.4375 0 L 12.636719 -11.144531 Z M 18.605469 -16.742188 L 14.234375 -16.742188 L 16.421875 -24.417969 Z M 18.605469 -16.742188 "/></g></g></g><g fill="#ffffff" fill-opacity="1"><g transform="translate(281.569009, 178.782919)"><g><path d="M 44.515625 -39.078125 L 30.601562 -39.078125 L 23.617188 -14.660156 L 16.632812 -39.078125 L 2.664062 -39.078125 L 2.664062 0 L 11.035156 0 L 11.035156 -19.511719 L 16.632812 0 L 27.777344 0 L 33.375 -19.511719 L 33.375 0 L 44.515625 0 Z M 44.515625 -39.078125 "/></g></g></g><g clip-path="url(#5a0520080e)"><path fill="#ffffff" d="M 46.5625 163.273438 L 46.5625 131.921875 L 59.28125 131.921875 L 59.28125 163.273438 Z M 46.5625 163.273438 " fill-opacity="1" fill-rule="nonzero"/></g><g clip-path="url(#c17f893549)"><path fill="#9931b6" d="M 46.5625 203.472656 L 46.5625 173.492188 L 59.28125 173.492188 L 59.28125 203.472656 Z M 46.5625 203.472656 " fill-opacity="1" fill-rule="nonzero"/></g></svg>

